<?xml version="1.0" standalone="no"?>
<!DOCTYPE svg PUBLIC "-//W3C//DTD SVG 20010904//EN"
 "http://www.w3.org/TR/2001/REC-SVG-20010904/DTD/svg10.dtd">
<svg version="1.0" xmlns="http://www.w3.org/2000/svg"
 width="18.000000pt" height="18.000000pt" viewBox="0 0 18.000000 18.000000"
 preserveAspectRatio="xMidYMid meet">

<g transform="translate(0.000000,18.000000) scale(0.100000,-0.100000)"
fill="#000000" stroke="none">
<path d="M50 158 c7 -8 2 -20 -17 -40 -21 -22 -24 -31 -15 -40 7 -7 12 -22 12
-34 0 -31 17 -39 40 -19 15 14 21 14 38 4 17 -10 23 -10 37 1 9 7 14 19 11 26
-3 7 0 16 5 20 6 4 1 16 -13 31 -28 30 -85 72 -74 55 9 -15 -5 -16 -22 -2 -9
7 -9 7 -2 -2z m82 -47 l28 -29 -32 -11 c-41 -14 -69 -13 -91 3 -18 14 -17 15
4 40 29 34 58 33 91 -3z m2 -65 c-21 -15 -30 -14 -19 3 3 6 14 11 23 11 13 0
13 -2 -4 -14z"/>
</g>
</svg>
