<?xml version="1.0" encoding="UTF-8" standalone="no"?>
<!-- Created with Inkscape (http://www.inkscape.org/) -->

<svg
   version="1.1"
   id="svg1"
   width="1920"
   height="1080"
   viewBox="0 0 1920 1080"
   sodipodi:docname="Logo.svg"
   inkscape:version="1.3.2 (091e20e, 2023-11-25, custom)"
   xmlns:inkscape="http://www.inkscape.org/namespaces/inkscape"
   xmlns:sodipodi="http://sodipodi.sourceforge.net/DTD/sodipodi-0.dtd"
   xmlns="http://www.w3.org/2000/svg"
   xmlns:svg="http://www.w3.org/2000/svg">
  <defs
     id="defs1">
    <rect
       x="341.24432"
       y="168.66098"
       width="1762.4659"
       height="953.31262"
       id="rect1" />
  </defs>
  <sodipodi:namedview
     id="namedview1"
     pagecolor="#ffffff"
     bordercolor="#000000"
     borderopacity="0.25"
     inkscape:showpageshadow="2"
     inkscape:pageopacity="0.0"
     inkscape:pagecheckerboard="0"
     inkscape:deskcolor="#d1d1d1"
     inkscape:zoom="0.54082915"
     inkscape:cx="980.90127"
     inkscape:cy="581.51451"
     inkscape:window-width="1920"
     inkscape:window-height="1057"
     inkscape:window-x="-8"
     inkscape:window-y="-8"
     inkscape:window-maximized="1"
     inkscape:current-layer="g1" />
  <g
     inkscape:groupmode="layer"
     inkscape:label="Image"
     id="g1">
    <path
       style="fill:#f9f9f9"
       d="m 241.33141,925.63655 c 0.28501,-1.65 23.02934,-83.30046 50.54295,-181.44547 27.51361,-98.145 49.92521,-178.53218 49.80355,-178.63817 -0.12166,-0.10599 -22.84427,8.3714 -50.49469,18.83864 -27.65043,10.46724 -50.53885,18.766 -50.86316,18.44168 -0.32431,-0.32431 53.55497,-105.29509 119.73175,-233.26839 66.17678,-127.9733 120.45622,-232.27433 120.62097,-231.78007 0.16476,0.49427 -36.31934,88.18812 -81.07577,194.87522 -44.75643,106.68711 -81.30061,194.0734 -81.20928,194.19176 0.0913,0.11836 19.38799,-5.68786 42.88148,-12.9027 23.49349,-7.21484 43.00403,-12.82931 43.35675,-12.47658 0.35272,0.35272 -14.94794,52.70206 -34.00148,116.33185 -19.05353,63.6298 -34.53266,115.80068 -34.39805,115.93528 0.13461,0.13461 47.20722,-57.56777 104.60582,-128.22751 57.39859,-70.65974 104.57765,-128.25569 104.84235,-127.99098 0.42621,0.4262 -299.13205,444.10954 -303.22581,449.11544 -1.58424,1.93723 -1.61931,1.90584 -1.11738,-1 z"
       id="path1" />
    <path
       style="fill:#ffcc00"
       d="m 248.33238,929.06772 c 0.28502,-1.65 23.02934,-83.30046 50.54295,-181.44547 27.51361,-98.145 49.92521,-178.53218 49.80355,-178.63817 -0.12166,-0.10599 -22.84427,8.3714 -50.49469,18.83864 -27.65043,10.46724 -50.53884,18.766 -50.86316,18.44168 -0.32431,-0.32431 53.55497,-105.29509 119.73175,-233.26839 66.17678,-127.9733 120.45622,-232.27432 120.62097,-231.78006 0.16476,0.49427 -36.31934,88.18812 -81.07577,194.87521 -44.75643,106.68711 -81.30061,194.0734 -81.20928,194.19176 0.0913,0.11836 19.38799,-5.68786 42.88148,-12.9027 23.49349,-7.21484 43.00403,-12.82931 43.35675,-12.47658 0.35272,0.35272 -14.94794,52.70206 -34.00148,116.33185 -19.05353,63.6298 -34.53266,115.80068 -34.39805,115.93528 0.13461,0.13461 47.20722,-57.56777 104.60582,-128.22751 57.39859,-70.65974 104.57765,-128.25569 104.84235,-127.99098 0.42621,0.4262 -299.13205,444.10954 -303.22581,449.11544 -1.58424,1.93723 -1.61931,1.90584 -1.11738,-1 z"
       id="path1-2" />
    <path
       style="font-size:256px;font-family:Facon;-inkscape-font-specification:Facon;white-space:pre;fill:#f9f9f9"
       d="m 402.24414,363.87829 88.375,-65 q -5.875,6.5 -11.375,12.625 -3.125,3.625 -5.25,6.125 -2.125,2.375 -4.25,5 -2.125,2.5 -4.125,5 -1.875,2.375 -3.25,4.375 -3.75,5.375 -6,10.75 -2.125,5.25 -3.125,8.5 l -11.875,47.875 h -47.875 z m 24.25,-148.375 -85.75,63 q 1.125,-1.125 5,-5.5 4,-4.375 8.875,-10 4.875,-5.625 9.75,-11.5 4.875,-5.875 7.75,-10.125 2.25,-3.25 4,-6.5 1.75,-3.375 3,-6.375 1.375,-3 2.25,-5.5 0.875,-2.625 1.25,-4.375 l 0.875,-3.125 z m 39,0 h 77.75 l -8.875,36 h -56.5 l -14,56.625 -77.625,57 q 5.625,-5.375 10.375,-11 2.875,-3.25 4.625,-5.625 1.75,-2.375 3.375,-5 1.75,-2.625 3.125,-5.25 1.375,-2.75 2.125,-5.375 l 20.125,-81.375 h -40.625 l 109.25,-80.25 q -12.5,11.25 -21.125,20.5 -5.25,5.5 -8,8.875 -2.625,3.375 -4.25,6.5 -1.625,3 -1.875,5.375 -0.125,2.25 2.125,3 z m 245.375,-31 -164.875,121.125 q 3.5,-2.5 7,-5.75 3.5,-3.375 6.625,-6.625 3.125,-3.375 5.5,-6.25 2.5,-2.875 3.75,-4.625 l 40.625,-64.625 h 0.125 l 0.125,-0.25 h 17.125 q 10.75,0 22.25,-2.625 11.625,-2.625 21,-7.875 6.625,-3.5 13.25,-7.125 6.75,-3.75 12.25,-6.875 5.625,-3.125 9.625,-5.375 4.125,-2.25 5.625,-3.125 z m -42.75,141.875 q 0.25,2 0.75,3.875 0.5,1.75 1.5,3.125 1,1.375 2.5,2.25 1.5,0.75 3.75,0.75 2.875,0 7,-1.5 4.25,-1.5 10.25,-5.125 l -86.25,63.25 q 3.875,-3.125 6.875,-7.375 3.125,-4.375 5.25,-8.5 2.25,-4.125 3.625,-7.375 1.375,-3.25 1.875,-4.5 h -59.875 l -19,33.375 h -50.5 l 27.625,-44 q 4,-6.875 4.5,-10.5 0.625,-3.75 -2.875,-3.75 -2.125,0 -7.125,2 -4.875,2 -10.375,4.625 -5.5,2.5 -10.375,5.125 -5,2.5 -7.25,3.625 l 61.25,-45.25 104.25,-76.5 12.5,91.25 0.125,0.5 q 0,0.5 0,0.625 z m -82.5,3.375 h 36.625 l -4.25,-56.875 z m 86.375,24.875 14.875,-10.875 q -2.25,2.5 -4.75,5.625 -2.375,3.125 -4.375,6.625 -1.875,3.5 -3,7.375 -1,3.75 -0.5,7.375 0.125,0.625 0.125,1.625 l 3.625,26.25 h -44.125 q -1.625,0.25 -7,1.5 -5.375,1.25 -14.25,5 -8.875,3.875 -21.25,10.75 -12.375,7 -28,18.5 l 63.25,-46.5 v -0.125 l 45.375,-33.25 z m 204.25,-124.25 q 15.875,14.75 9.125,41.625 -4.75,19.25 -15.875,31.75 -11.125,12.375 -29.375,20.125 l 13.625,46.875 v -0.125 l 8.375,28.625 h -52.25 l -17.375,-63.875 h -22.75 l -5.75,23 q 0.125,0.75 0.625,1.625 0.625,0.75 2.5,0.75 1.5,0 4.125,-0.75 2.625,-0.875 6.875,-2.75 -0.125,0 -2.625,1.875 -2.5,1.75 -6.5,4.75 -4,3 -9.25,6.75 -5.125,3.75 -10.5,7.625 -12.5,9.25 -28.5,21 h -14.625 l 21.375,-86.625 q -0.125,-1.125 -1.125,-2.75 -0.875,-1.75 -4.125,-1.75 -1.5,0 -3.625,0.5 -2.125,0.5 -5,1.75 -5.625,2.5 -10.625,4.875 -4.875,2.375 -8.625,4.125 -4.25,2.125 -7.875,4.125 l 46.875,-34.375 v -0.125 l 99.625,-73.125 q 5.625,0.25 11.5,1 5.875,0.75 11.5,2.5 5.625,1.625 10.75,4.375 5.25,2.625 9.5,6.625 z m -39.375,45 q 2.75,-11.25 -1.875,-17.375 -4.5,-6.25 -16.75,-6.25 h -27.75 l -11.75,47.5 h 27.125 q 12.125,0 20,-6 8,-6.125 11,-17.875 z m 25.5,-89.875 -126.375,92.75 15.5,-62.5 h 39.125 q 3.25,-0.375 7.375,-1 4.25,-0.75 8.875,-1.875 4.75,-1.25 9.625,-3 5,-1.875 9.75,-4.375 5.125,-2.875 10.25,-5.75 5.25,-2.875 10,-5.5 4.75,-2.625 8.75,-4.875 4.125,-2.25 7.125,-3.875 z m -180.75,251.625 77,-56.75 -4.375,19 q -8.5,1.75 -19.625,6.5 -10,4.25 -23.125,11.5 -13,7.25 -29.875,19.75 z m 406.87496,-252.625 -164.87496,121.125 q 3.5,-2.5 7,-5.75 3.5,-3.375 6.625,-6.625 3.125,-3.375 5.5,-6.25 2.5,-2.875 3.75,-4.625 l 40.625,-64.625 h 0.125 l 0.125,-0.25 h 17.12496 q 10.75,0 22.25,-2.625 11.625,-2.625 21,-7.875 6.625,-3.5 13.25,-7.125 6.75,-3.75 12.25,-6.875 5.625,-3.125 9.625,-5.375 4.125,-2.25 5.625,-3.125 z m -42.75,141.875 q 0.25,2 0.75,3.875 0.5,1.75 1.5,3.125 1,1.375 2.5,2.25 1.5,0.75 3.75,0.75 2.875,0 7,-1.5 4.25,-1.5 10.25,-5.125 l -86.24996,63.25 q 3.875,-3.125 6.875,-7.375 3.125,-4.375 5.25,-8.5 2.25,-4.125 3.62496,-7.375 1.375,-3.25 1.875,-4.5 h -59.87496 l -19,33.375 h -50.5 l 27.625,-44 q 4,-6.875 4.5,-10.5 0.625,-3.75 -2.875,-3.75 -2.125,0 -7.125,2 -4.875,2 -10.375,4.625 -5.5,2.5 -10.375,5.125 -5,2.5 -7.25,3.625 l 61.25,-45.25 104.24996,-76.5 12.5,91.25 0.125,0.5 q 0,0.5 0,0.625 z m -82.49996,3.375 h 36.625 l -4.25,-56.875 z m 86.37496,24.875 14.875,-10.875 q -2.25,2.5 -4.75,5.625 -2.375,3.125 -4.375,6.625 -1.875,3.5 -3,7.375 -1,3.75 -0.5,7.375 0.125,0.625 0.125,1.625 l 3.625,26.25 h -44.125 q -1.625,0.25 -7,1.5 -5.37496,1.25 -14.24996,5 -8.875,3.875 -21.25,10.75 -12.375,7 -28,18.5 l 63.24996,-46.5 v -0.125 l 45.375,-33.25 z m 180.375,-85.25 113.125,-82.875 q -14.125,10.875 -26.625,23.625 -7.375,7.25 -12.25,13 -4.875,5.75 -9.625,12.5 -4.75,6.625 -9,14.125 -4.125,7.375 -6.875,15.25 l -33.375,135 h -46.875 q -7.125,-20.5 -12.625,-36.625 -3.375,-9.75 -5.375,-15.375 -2,-5.75 -3.625,-10.5 -1.625,-4.75 -2.75,-7.875 -1.125,-3.125 -1.125,-3.25 -1.625,-4.875 -5,-4.875 -2.375,0 -5.5,2.375 -6.625,4.75 -9.75,8.5 -3,3.625 -4.25,7.125 l -15,60.5 h -37.5 q -13.375,0.375 -25.5,3.25 -12.25,2.875 -21.875,6.25 -9.625,3.5 -15.875,6.625 -6.375,3.125 -7.875,4 l 178.375,-131 12.75,37.125 z m 60.125,-53 -80.625,59.25 q 4.5,-4.375 9.375,-11.125 5,-6.875 9.5,-14.625 4.5,-7.75 8.125,-15.5 3.625,-7.75 5.625,-13.875 l 1,-4.125 z m -135.875,99.875 -58.5,42.875 35.375,-142.75 h 47.125 l 22.5,65.625 -34.25,25.25 -5.875,-17 z m 183.75,-51.25 91.25,-67 q -1.125,1.125 -5,5.5 -3.875,4.375 -8.75,10 -4.875,5.625 -9.75,11.5 -4.875,5.875 -7.75,10 -4.5,6.375 -7,12.625 -2.5,6.25 -3.5,9.875 l -15,60.375 -82.375,60.5 q 0.75,-0.75 3.625,-3.875 2.875,-3.25 6.375,-7.375 3.625,-4.125 7.125,-8.375 3.625,-4.375 5.75,-7.375 3.125,-4.375 4.875,-8.875 1.875,-4.5 2.75,-7.125 z m 31.875,63.625 v 0.125 l 25.75,-18.875 q -5.125,5.5 -9.75,10.625 -2.75,3 -4.625,5.125 -1.75,2.125 -3.5,4.25 -1.75,2.125 -3.5,4.25 -1.625,2.125 -2.75,3.75 -2.375,3.375 -4,6.875 -1.625,3.375 -2.625,6.25 -1.25,3.25 -1.875,6.25 h -0.25 l -10.25,42 h -47.75 l 6.875,-27.75 z m 23,-112.75 -85.625,62.875 q 1,-1.125 4.875,-5.5 4,-4.375 8.875,-9.875 4.875,-5.625 9.75,-11.5 4.875,-6 7.875,-10.125 3,-4.5 5.125,-9 2.25,-4.5 3.5,-8.25 1.625,-4.25 2.625,-8.25 h 0.125 l 0.125,-0.375 z m 78.625,107 -59.375,43.625 q -3.375,-12.25 0.25,-27.125 l 0.25,-0.875 h 13.875 v -0.125 q 7,-0.125 14.5,-1.875 7,-1.5 14.75,-4.5 7.75,-3.125 15.75,-9.125 z m -9.625,-8.75 q -33.25,-17.75 -25.5,-48.875 3.375,-13.75 12.5,-23.5 9.125,-9.875 21.25,-16.125 12.125,-6.25 25.875,-9.125 13.875,-3 26.625,-3 8.125,0 16.5,1.375 8.375,1.25 15.875,4.375 7.625,3.125 13.75,8.5 6.125,5.25 9.75,13.25 0.375,0.625 0.625,1.375 0.25,0.625 0.375,1.25 l -55.375,40.75 q 3.375,-3 5.25,-6.125 2,-3.125 2.875,-6.125 l 0.375,-1.5 q 2.75,-10.5 -2.5,-16 -5.375,-5.75 -16.75,-5.75 -4.25,0 -9,1 -4.75,0.875 -9,3 -4.125,2 -7.25,5.375 -3.125,3.25 -4.375,8 -1.5,6.25 4.25,11.375 6.375,5.5 24,11.375 1.125,0.375 2,0.75 1,0.25 1.875,0.625 l -40.75,29.875 q -3.875,-1.5 -7.125,-3 -3.25,-1.625 -6.125,-3.125 z m 90.875,-42 55.375,-40.625 q -0.75,0.875 -3.375,3.75 -2.5,2.875 -5.625,6.5 -3.125,3.5 -6.25,7.375 -3.125,3.75 -5,6.375 -2,2.875 -3.5,5.875 -1.375,2.875 -2.25,5.25 -1,2.75 -1.625,5.375 h -0.5 v 0.125 z m -11.625,30 q 27.125,17.5 19.5,48 -3.5,14.25 -12,24.25 -8.5,9.875 -20,16 -11.375,6.125 -24.75,8.875 -13.375,2.75 -26.75,2.75 -6.5,0 -13.625,-0.875 -7.125,-0.75 -14.125,-2.625 -7,-1.875 -13.375,-5 -6.375,-3.125 -11.5,-7.625 -1.5,-0.75 -3.75,-0.75 -3.25,0 -7.75,1.375 -4.5,1.25 -9.625,3.5 -5,2.125 -10.5,4.875 -5.5,2.75 -10.625,5.75 -12.25,6.75 -25.625,15.375 l 103.5,-75.875 q -3.375,14.125 2.25,20.5 5.875,6.625 22.875,6.625 4.5,0 8.875,-0.875 4.375,-1 8.125,-3 3.875,-2 6.625,-5.25 2.875,-3.25 4,-8 2.25,-9 -3,-14 -5.5,-5.25 -21.625,-10.875 -2.75,-0.875 -5.25,-1.875 l 40.75,-30 q 5.25,2.125 9.5,4.375 4.375,2.125 7.875,4.375 z"
       id="text1"
       transform="matrix(0.99962189,0,0,0.99843036,51.809381,77.161462)"
       aria-label="Taranis&#10;" />
    <path
       d="m 548.39529,621.78589 -59.375,43.625 q -3.375,-12.25 0.25,-27.125 l 0.25,-0.875 h 13.875 v -0.125 q 7,-0.125 14.5,-1.875 7,-1.5 14.75,-4.5 7.75,-3.125 15.75,-9.125 z m -9.625,-8.75 q -33.25,-17.75 -25.5,-48.875 3.375,-13.75 12.5,-23.5 9.125,-9.875 21.25,-16.125 12.125,-6.25 25.875,-9.125 13.875,-3 26.625,-3 8.125,0 16.5,1.375 8.375,1.25 15.875,4.375 7.625,3.125 13.75,8.5 6.125,5.25 9.75,13.25 0.375,0.625 0.625,1.375 0.25,0.625 0.375,1.25 l -55.375,40.75 q 3.375,-3 5.25,-6.125 2,-3.125 2.875,-6.125 l 0.375,-1.5 q 2.75,-10.5 -2.5,-16 -5.375,-5.75 -16.75,-5.75 -4.25,0 -9,1 -4.75,0.875 -9,3 -4.125,2 -7.25,5.375 -3.125,3.25 -4.375,8 -1.5,6.25 4.25,11.375 6.375,5.5 24,11.375 1.125,0.375 2,0.75 1,0.25 1.875,0.625 l -40.75,29.875 q -3.875,-1.5 -7.125,-3 -3.25,-1.625 -6.125,-3.125 z m 90.875,-42 55.375,-40.625 q -0.75,0.875 -3.375,3.75 -2.5,2.875 -5.625,6.5 -3.125,3.5 -6.25,7.375 -3.125,3.75 -5,6.375 -2,2.875 -3.5,5.875 -1.375,2.875 -2.25,5.25 -1,2.75 -1.625,5.375 h -0.5 v 0.125 z m -11.625,30 q 27.125,17.5 19.5,48 -3.5,14.25 -12,24.25 -8.5,9.875 -20,16 -11.375,6.125 -24.75,8.875 -13.375,2.75 -26.75,2.75 -6.5,0 -13.625,-0.875 -7.125,-0.75 -14.125,-2.625 -7,-1.875 -13.375,-5 -6.375,-3.125 -11.5,-7.625 -1.5,-0.75 -3.75,-0.75 -3.25,0 -7.75,1.375 -4.5,1.25 -9.625,3.5 -5,2.125 -10.5,4.875 -5.5,2.75 -10.625,5.75 -12.25,6.75 -25.625,15.375 l 103.5,-75.875 q -3.375,14.125 2.25,20.5 5.875,6.625 22.875,6.625 4.5,0 8.875,-0.875 4.375,-1 8.125,-3 3.875,-2 6.625,-5.25 2.875,-3.25 4,-8 2.25,-9 -3,-14 -5.5,-5.25 -21.625,-10.875 -2.75,-0.875 -5.25,-1.875 l 40.75,-30 q 5.25,2.125 9.5,4.375 4.375,2.125 7.875,4.375 z m 101,61.75 88.375,-65 q -5.875,6.5 -11.375,12.625 -3.125,3.625 -5.25,6.125 -2.125,2.375 -4.25,5 -2.125,2.5 -4.125,5 -1.875,2.375 -3.25,4.375 -3.75,5.375 -6,10.75 -2.125,5.25 -3.125,8.5 l -11.875,47.875 h -47.875 z m 24.25,-148.375 -85.75,63 q 1.125,-1.125 5,-5.5 4,-4.375 8.875,-10 4.875,-5.625 9.75,-11.5 4.875,-5.875 7.75,-10.125 2.25,-3.25 4,-6.5 1.75,-3.375 3,-6.375 1.375,-3 2.25,-5.5 0.875,-2.625 1.25,-4.375 l 0.875,-3.125 z m 39,0 h 77.75 l -8.875,36 h -56.5 l -14,56.625 -77.625,57 q 5.625,-5.375 10.375,-11 2.875,-3.25 4.625,-5.625 1.75,-2.375 3.375,-5 1.75,-2.625 3.125,-5.25 1.375,-2.75 2.125,-5.375 l 20.125,-81.375 h -40.625 l 109.25,-80.25 q -12.5,11.25 -21.125,20.5 -5.25,5.5 -8,8.875 -2.625,3.375 -4.25,6.5 -1.625,3 -1.875,5.375 -0.125,2.25 2.125,3 z m 222.12501,0.75 h 9.25 q 5.625,-0.5 14.375,-2 8.75,-1.5 19.25,-4.75 10.625,-3.25 22.25,-8.75 11.75,-5.5 23.25,-14 l -223.25001,164 q 0.25,-3.375 0.75,-6.875 0.625,-3.5 1.375,-7.25 l 11.625,-47.25 q 0.125,-0.625 0.25,-1.125 0.125,-0.625 0.25,-1.25 1.25,-4.875 -0.5,-6.625 -1.75,-1.75 -5.25,-1.75 -2.75,0 -6.25,1 -3.5,0.875 -6.875,2.25 -3.375,1.25 -6.25,2.625 -2.75,1.25 -4.125,1.875 l 94.875,-69.75 -17.5,70.75 q -0.25,1.75 -0.375,3.5 -0.125,1.75 0,3.25 0.125,1.375 0.75,2.375 0.625,0.875 1.75,0.875 1.5,0 4.375,-2 2.375,-1.75 6.125,-4.5 3.875,-2.875 8.375,-6.125 4.625,-3.375 9.375,-6.875 4.75,-3.625 9,-6.625 4.25,-3.125 7.375,-5.5 3.25,-2.375 4.5,-3.25 2,-1.375 4.25,-3.5 2.25,-2.125 4.375,-4.75 2.125,-2.75 3.75,-6 1.75,-3.375 2.75,-7.25 0,0 0.25,-1 0.375,-1.125 0.75,-2.875 0.375,-1.75 0.87501,-4 0.625,-2.25 1.25,-4.5 1.375,-5.5 3,-12.375 z m -9.25001,-42.125 -101.875,75 8.125,-32.875 h 10.75 q 3.5,-0.625 10.25,-2.5 6.75,-2 17,-6.625 10.25,-4.625 24.125,-12.5 13.875,-8 31.625,-20.5 z m -4.125,96.25 58.50001,-43 -27,109 q -4.125,16.625 -12.875,29 -8.625,12.375 -20.62501,20.625 -12,8.25 -26.75,12.375 -14.75,4 -31,4 -8.375,0 -17.125,-1.25 -8.625,-1.25 -16.5,-4.5 -7.75,-3.25 -14.125,-8.625 -6.25,-5.5 -10.125,-13.875 -4.75,0.75 -10.5,2.75 -5.625,1.875 -11.625,4.625 -6,2.625 -12,5.75 -6,3.125 -11.5,6.25 -13.125,7.5 -26.5,16.375 l 122.75,-90.375 -4.625,18.5 q -3.25,14.875 2.25,22 5.25,6.375 18,6.375 7.75,0 13.5,-2.125 5.875,-2.25 10.125,-6.25 4.25,-4 7,-9.625 2.875,-5.75 4.625,-12.875 z m 128.37501,128.875 121.875,-89.5 q -0.875,1 -4,4.5 -3,3.375 -7,8.125 -4,4.75 -8.375,10.5 -4.375,5.625 -8.125,11.125 -7.625,12.5 -17.875,22.625 -10.125,10 -22.25,17.25 -12.125,7.125 -25.875,11.125 -13.625,4 -28.375,4.25 z m 12.625,-116.25 -100.375,73.75 q 2.625,-2.25 7,-6.375 4.25,-4.25 9.5,-9.625 5.125,-5.375 10.625,-11.75 5.5,-6.5 10.375,-13.25 4.875,-6.75 8.5,-13.625 3.75,-6.875 5.25,-13.25 l 18,-72.25 h 61.25 q 12.625,0 23.875,3.125 11.375,3.125 20,8.75 l -56,41.25 q 1.25,-1.25 3.75,-3.625 2.5,-2.5 4.75,-5.125 2.25,-2.625 3.375,-4.875 1.25,-2.25 -0.125,-3 -3.75,-0.75 -8,-0.75 h -14.25 z m -50.5,135.125 q 2,-1.625 5.25,-4.75 3.25,-3 5.875,-6.125 2.75,-3 3.75,-5.375 1.125,-2.375 -1.375,-2.625 h -39.375 l 15.5,-62.75 58.25,-42.75 -17.25,69.625 h 14.125 q 11.5,0 20.125,-4.375 8.75,-4.375 15,-11.625 6.375,-7.25 10.5,-16.625 4.25,-9.375 6.625,-19.375 l 1.875,-7.75 q 6.5,-25.75 -0.5,-38.625 -1.75,-3.25 -4.125,-5.375 l 68.75,-50.375 q -7.375,7.125 -13,13.625 -3.25,3.875 -5.125,6.5 -1.875,2.5 -3.25,5.125 -1.25,2.625 -1.875,5 -0.625,2.25 0,4 4.625,6.75 7.25,15.25 6.5,20.125 0.375,45 l -1.875,7.75 z m 199.75,-153.125 91.25,-67 q -1.125,1.125 -5,5.5 -3.875,4.375 -8.75,10 -4.875,5.625 -9.75,11.5 -4.875,5.875 -7.75,10 -4.5,6.375 -7,12.625 -2.5,6.25 -3.5,9.875 l -15,60.375 -82.375,60.5 q 0.75,-0.75 3.625,-3.875 2.875,-3.25 6.375,-7.375 3.625,-4.125 7.125,-8.375 3.625,-4.375 5.75,-7.375 3.125,-4.375 4.875,-8.875 1.875,-4.5 2.75,-7.125 z m 31.875,63.625 v 0.125 l 25.75,-18.875 q -5.125,5.5 -9.75,10.625 -2.75,3 -4.625,5.125 -1.75,2.125 -3.5,4.25 -1.75,2.125 -3.5,4.25 -1.625,2.125 -2.75,3.75 -2.375,3.375 -4,6.875 -1.625,3.375 -2.625,6.25 -1.25,3.25 -1.875,6.25 h -0.25 l -10.25,42 h -47.75 l 6.875,-27.75 z m 23,-112.75 -85.625,62.875 q 1,-1.125 4.875,-5.5 4,-4.375 8.875,-9.875 4.875,-5.625 9.75,-11.5 4.875,-6 7.875,-10.125 3,-4.5 5.125,-9 2.25,-4.5 3.5,-8.25 1.625,-4.25 2.625,-8.25 h 0.125 l 0.125,-0.375 z m 74.625,104.625 -48.375,35.625 q -4.125,-18.75 1.125,-42.25 l 2.625,-10.25 q 4.625,-19 14.125,-35.5 9.625,-16.5 23.25,-28.625 13.625,-12.25 30.875,-19.25 17.375,-7 37.375,-7 7.75,0 15.25,1.25 7.625,1.25 14.375,4.125 6.875,2.75 12.875,7.125 6.125,4.375 10.875,10.75 l -63.5,46.625 q 2.25,-2 6,-5.625 3.75,-3.75 7,-7.875 3.375,-4.25 5.125,-8.25 1.75,-4 -0.125,-6.5 -3.25,-2.75 -7.25,-3.875 -4,-1.25 -9,-1.25 -10.375,0 -18.125,4.375 -7.75,4.25 -13.375,11.25 -5.625,6.875 -9.5,15.625 -3.75,8.625 -6.25,17.375 l -3.375,13.375 q -0.625,2.25 -1.125,4.5 -0.375,2.125 -0.875,4.25 z m -97.625,80.625 271.875,-199.625 q -14.375,12.25 -25.5,23.75 -6.75,6.625 -10.625,11.25 -3.75,4.5 -6.875,9.125 -3.125,4.625 -5,9 -1.75,4.25 -1.375,7.5 3.375,18.375 -2.25,41 l -2,8.375 q -4.625,18.875 -14.25,35.375 -9.5,16.5 -23.125,28.75 -13.5,12.125 -30.75,19.125 -17.25,7 -37.25,7 -13.75,0 -26.5,-4 -12.75,-4 -22.75,-13.875 -3.25,-3.125 -9.75,-3.125 -3.625,0 -7.875,0.875 -4.25,0.875 -8.75,2.375 -4.375,1.375 -8.875,3.25 -4.5,1.75 -8.75,3.625 -9.625,4.5 -19.625,10.25 z m 171.625,-97.625 q 1.25,-5.25 2,-9.875 0.875,-4.625 1.25,-8.875 -0.375,-2.5 -3.25,-2.5 -1.5,0 -3.5,0.875 -2,0.75 -4,2.25 -1.875,1.375 -6.75,5 -4.75,3.625 -11,8.375 -6.125,4.625 -13.125,9.875 -6.875,5.125 -12.875,9.75 -5.875,4.5 -10.25,7.875 -4.25,3.25 -5.375,4.25 -3.25,2.875 -6,6 -2.75,3 -2.125,6.5 0.625,11 6.75,16.875 6.25,5.875 17.75,5.875 10.75,0 18.75,-5.125 8,-5.125 13.875,-13 5.875,-7.875 9.625,-17.375 3.875,-9.5 6.125,-18.375 z m 134.5,19.375 -59.375,43.625 q -3.375,-12.25 0.25,-27.125 l 0.25,-0.875 h 13.875 v -0.125 q 7,-0.125 14.5,-1.875 7,-1.5 14.75,-4.5 7.75,-3.125 15.75,-9.125 z m -9.625,-8.75 q -33.25,-17.75 -25.5,-48.875 3.375,-13.75 12.5,-23.5 9.125,-9.875 21.25,-16.125 12.125,-6.25 25.875,-9.125 13.875,-3 26.625,-3 8.125,0 16.5,1.375 8.375,1.25 15.875,4.375 7.625,3.125 13.75,8.5 6.125,5.25 9.75,13.25 0.375,0.625 0.625,1.375 0.25,0.625 0.375,1.25 l -55.375,40.75 q 3.375,-3 5.25,-6.125 2,-3.125 2.875,-6.125 l 0.375,-1.5 q 2.75,-10.5 -2.5,-16 -5.375,-5.75 -16.75,-5.75 -4.25,0 -9,1 -4.75,0.875 -9,3 -4.125,2 -7.25,5.375 -3.125,3.25 -4.375,8 -1.5,6.25 4.25,11.375 6.375,5.5 24,11.375 1.125,0.375 2,0.75 1,0.25 1.875,0.625 l -40.75,29.875 q -3.875,-1.5 -7.125,-3 -3.25,-1.625 -6.125,-3.125 z m 90.875,-42 55.375,-40.625 q -0.75,0.875 -3.375,3.75 -2.5,2.875 -5.625,6.5 -3.125,3.5 -6.25,7.375 -3.125,3.75 -5,6.375 -2,2.875 -3.5,5.875 -1.375,2.875 -2.25,5.25 -1,2.75 -1.625,5.375 h -0.5 v 0.125 z m -11.625,30 q 27.125,17.5 19.5,48 -3.5,14.25 -12,24.25 -8.5,9.875 -20,16 -11.375,6.125 -24.75,8.875 -13.375,2.75 -26.75,2.75 -6.5,0 -13.625,-0.875 -7.125,-0.75 -14.125,-2.625 -7,-1.875 -13.375,-5 -6.375,-3.125 -11.5,-7.625 -1.5,-0.75 -3.75,-0.75 -3.25,0 -7.75,1.375 -4.5,1.25 -9.625,3.5 -5,2.125 -10.5,4.875 -5.5,2.75 -10.625,5.75 -12.25,6.75 -25.625,15.375 l 103.5,-75.875 q -3.375,14.125 2.25,20.5 5.875,6.625 22.875,6.625 4.5,0 8.875,-0.875 4.375,-1 8.125,-3 3.875,-2 6.625,-5.25 2.875,-3.25 4,-8 2.25,-9 -3,-14 -5.5,-5.25 -21.625,-10.875 -2.75,-0.875 -5.25,-1.875 l 40.75,-30 q 5.25,2.125 9.5,4.375 4.375,2.125 7.875,4.375 z"
       id="text2"
       style="font-size:256px;font-family:Facon;-inkscape-font-specification:Facon;fill:#ffcc00"
       aria-label="Studios" />
  </g>
</svg>
