<?xml version="1.0" encoding="UTF-8" standalone="no"?>
<!-- Created with Inkscape (http://www.inkscape.org/) -->

<svg
   version="1.1"
   id="svg1"
   width="858"
   height="166"
   viewBox="0 0 858 166"
   sodipodi:docname="Splash_Screen.svg"
   inkscape:version="1.3.2 (091e20e, 2023-11-25, custom)"
   xmlns:inkscape="http://www.inkscape.org/namespaces/inkscape"
   xmlns:sodipodi="http://sodipodi.sourceforge.net/DTD/sodipodi-0.dtd"
   xmlns="http://www.w3.org/2000/svg"
   xmlns:svg="http://www.w3.org/2000/svg">
  <defs
     id="defs1">
    <rect
       x="401.23578"
       y="258.86179"
       width="2720.3694"
       height="1394.7355"
       id="rect5" />
    <rect
       x="341.24432"
       y="168.66098"
       width="1762.4659"
       height="953.31262"
       id="rect1" />
  </defs>
  <sodipodi:namedview
     id="namedview1"
     pagecolor="#343434"
     bordercolor="#000000"
     borderopacity="0.25"
     inkscape:showpageshadow="2"
     inkscape:pageopacity="0.0"
     inkscape:pagecheckerboard="0"
     inkscape:deskcolor="#d1d1d1"
     inkscape:zoom="0.76484792"
     inkscape:cx="436.0344"
     inkscape:cy="132.70612"
     inkscape:window-width="1920"
     inkscape:window-height="1057"
     inkscape:window-x="-8"
     inkscape:window-y="-8"
     inkscape:window-maximized="1"
     inkscape:current-layer="g1" />
  <g
     inkscape:groupmode="layer"
     inkscape:label="Image"
     id="g1">
    <g
       id="text4"
       style="font-size:42.6667px;line-height:0.7;font-family:Dubai;-inkscape-font-specification:Dubai;text-align:center;letter-spacing:-0.118085px;word-spacing:-0.0524823px;text-anchor:middle;white-space:pre;shape-padding:20.3391;fill:#ffffff"
       transform="matrix(0.71761789,0,0,0.80946948,-836.81691,-210.60306)"
       aria-label="A GAME BY&#10;TARANIS STUDIOS">
      <path
         style="font-family:'Super Corn';-inkscape-font-specification:'Super Corn'"
         d="m 1676.2496,281.48032 q 0.8107,-0.34133 1.8347,-0.512 1.0667,-0.17067 2.2187,-0.17067 1.4506,0 2.944,0.21334 1.4933,0.17066 2.8586,0.46933 0.4694,0.72533 1.0667,2.688 0.64,1.92 1.28,4.52267 0.6827,2.60267 1.3227,5.54667 0.64,2.90134 1.152,5.58934 0.5546,2.688 0.896,4.82134 0.384,2.13333 0.4693,3.11467 -0.8533,0.21333 -1.8347,0.256 -0.9386,0.0853 -1.8773,0.0853 -2.1333,0 -3.712,-0.34133 -0.1707,-0.46934 -0.4267,-1.19467 -0.2133,-0.72534 -0.4266,-1.49334 -0.2134,-0.81066 -0.4267,-1.536 -0.2133,-0.72533 -0.384,-1.19467 -0.3413,0.0853 -0.8107,0.128 -0.4693,0.0427 -1.024,0.0427 -0.9813,0 -1.9626,-0.0427 -0.9387,-0.0853 -1.4934,-0.17066 -0.128,0.512 -0.2987,1.32267 -0.1706,0.768 -0.384,1.57866 -0.2133,0.81067 -0.4266,1.536 -0.1707,0.68267 -0.384,1.02401 -1.664,0.256 -3.584,0.256 -1.92,0 -3.584,-0.256 -0.1707,-0.89601 0.085,-2.90134 0.256,-2.048 0.768,-4.69334 0.5547,-2.64533 1.28,-5.54667 0.768,-2.944 1.5787,-5.54667 0.8533,-2.64533 1.7066,-4.69334 0.8534,-2.048 1.5787,-2.90133 z m 4.6507,4.43734 q 0,0 -0.1707,0.72533 -0.128,0.72533 -0.3413,1.83467 -0.2133,1.06666 -0.4693,2.38933 -0.256,1.28 -0.4694,2.432 -0.2133,1.15201 -0.384,2.00534 -0.1706,0.81067 -0.2133,0.98133 0.3413,-0.0853 0.8107,-0.0853 0.4693,0 0.9813,0 0.5547,0 1.0667,0 0.512,0 0.8533,0.0853 -0.4267,-2.73067 -0.8107,-4.94933 -0.128,-0.93867 -0.2986,-1.83467 -0.128,-0.93867 -0.256,-1.70667 -0.128,-0.768 -0.2134,-1.23733 -0.085,-0.512 -0.085,-0.64 z m 38.1541,11.05067 q -0.384,-1.36533 -0.4694,-3.02934 -0.043,-1.664 0.4694,-2.98666 h 5.376 q 1.4506,0 2.432,0.512 1.024,0.46933 1.664,1.28 0.64,0.768 0.896,1.70667 0.2986,0.93866 0.2986,1.83466 0,2.43201 -0.5546,4.73601 -0.5547,2.26133 -1.792,4.01067 -1.2374,1.70666 -3.2854,2.73067 -2.048,1.06666 -5.0346,1.06666 -3.1574,0 -5.4614,-1.152 -2.2613,-1.19467 -3.7546,-3.15733 -1.4507,-1.96267 -2.176,-4.56534 -0.6827,-2.60267 -0.6827,-5.46134 0,-3.28533 0.8107,-5.888 0.8106,-2.64534 2.3893,-4.43734 1.6213,-1.83467 4.0533,-2.816 2.432,-0.98134 5.632,-0.98134 1.2374,0 2.3894,0.128 1.1946,0.0853 2.1333,0.21334 0.9387,0.128 1.5787,0.256 0.64,0.0853 0.768,0.0853 0.2986,1.49334 0.256,3.11467 -0.043,1.62134 -0.2987,3.02934 -0.1707,-0.0853 -0.896,-0.17067 -0.7253,-0.128 -1.664,-0.256 -0.9387,-0.128 -1.92,-0.21333 -0.9813,-0.0853 -1.7067,-0.0853 -1.4506,0 -2.5173,0.64 -1.024,0.59734 -1.7493,1.664 -0.6827,1.06667 -1.024,2.51734 -0.3414,1.45067 -0.3414,3.11467 0,1.152 0.2134,2.432 0.256,1.23733 0.768,2.304 0.5546,1.06667 1.4506,1.74934 0.896,0.68266 2.2187,0.68266 1.92,0 2.56,-0.93866 0.64,-0.93867 0.64,-2.60267 0,-0.72534 -0.4693,-0.896 -0.4694,-0.17067 -1.1947,-0.17067 z m 18.6552,-15.48801 q 0.8107,-0.34133 1.8347,-0.512 1.0667,-0.17067 2.2187,-0.17067 1.4506,0 2.944,0.21334 1.4933,0.17066 2.8586,0.46933 0.4694,0.72533 1.0667,2.688 0.64,1.92 1.28,4.52267 0.6827,2.60267 1.3227,5.54667 0.64,2.90134 1.152,5.58934 0.5546,2.688 0.896,4.82134 0.384,2.13333 0.4693,3.11467 -0.8533,0.21333 -1.8347,0.256 -0.9386,0.0853 -1.8773,0.0853 -2.1333,0 -3.712,-0.34133 -0.1707,-0.46934 -0.4267,-1.19467 -0.2133,-0.72534 -0.4266,-1.49334 -0.2134,-0.81066 -0.4267,-1.536 -0.2133,-0.72533 -0.384,-1.19467 -0.3413,0.0853 -0.8107,0.128 -0.4693,0.0427 -1.024,0.0427 -0.9813,0 -1.9626,-0.0427 -0.9387,-0.0853 -1.4934,-0.17066 -0.128,0.512 -0.2986,1.32267 -0.1707,0.768 -0.384,1.57866 -0.2134,0.81067 -0.4267,1.536 -0.1707,0.68267 -0.384,1.02401 -1.664,0.256 -3.584,0.256 -1.92,0 -3.584,-0.256 -0.1707,-0.89601 0.085,-2.90134 0.256,-2.048 0.768,-4.69334 0.5547,-2.64533 1.28,-5.54667 0.768,-2.944 1.5787,-5.54667 0.8533,-2.64533 1.7067,-4.69334 0.8533,-2.048 1.5786,-2.90133 z m 4.6507,4.43734 q 0,0 -0.1707,0.72533 -0.128,0.72533 -0.3413,1.83467 -0.2133,1.06666 -0.4693,2.38933 -0.256,1.28 -0.4694,2.432 -0.2133,1.15201 -0.384,2.00534 -0.1706,0.81067 -0.2133,0.98133 0.3413,-0.0853 0.8107,-0.0853 0.4693,0 0.9813,0 0.5547,0 1.0667,0 0.512,0 0.8533,0.0853 -0.4267,-2.73067 -0.8107,-4.94933 -0.128,-0.93867 -0.2986,-1.83467 -0.128,-0.93867 -0.256,-1.70667 -0.128,-0.768 -0.2134,-1.23733 -0.085,-0.512 -0.085,-0.64 z m 29.4926,-4.43734 q 1.7494,-0.42667 3.5414,-0.384 1.792,0 3.3706,0.384 0.2987,0.512 0.512,1.408 0.2134,0.85333 0.3414,1.83467 0.128,0.93867 0.1706,1.83467 0.085,0.85333 0.085,1.408 v 17.79201 q 0,0.46933 -0.085,0.98133 -0.043,0.512 -0.256,1.02401 -0.6826,0.21333 -1.6213,0.34133 -0.896,0.128 -1.8347,0.128 -0.9386,0 -1.8773,-0.128 -0.896,-0.0853 -1.664,-0.34133 -0.085,-0.55467 -0.128,-1.10934 0,-0.55467 0,-1.024 l 0.1707,-13.78134 q -0.2134,0.256 -0.8534,1.152 -0.5973,0.896 -1.408,1.87733 -0.8106,0.98134 -1.664,1.74934 -0.8533,0.768 -1.536,0.768 -0.512,0 -1.3653,-0.81067 -0.8107,-0.85333 -1.6213,-1.87733 -0.768,-1.06667 -1.3227,-1.96267 -0.5547,-0.896 -0.5547,-1.024 v 14.03734 q 0,1.10933 -0.2986,2.00534 -1.7067,0.34133 -3.584,0.34133 -1.8774,0 -3.3707,-0.34133 -0.128,-1.02401 -0.128,-1.83467 v -17.36535 q 0,-0.55467 0,-1.536 0,-0.98133 0.043,-2.048 0.085,-1.06667 0.2133,-2.048 0.1707,-0.98134 0.4693,-1.49334 0.7254,-0.256 1.5787,-0.384 0.896,-0.17066 1.792,-0.17066 0.9387,0 1.8347,0.128 0.896,0.128 1.664,0.42666 0.64,0.93867 1.3226,2.304 0.7254,1.36534 1.3654,2.64534 0.64,1.28 1.1946,2.21867 0.5547,0.896 0.8534,0.896 0.3413,-0.42667 0.9386,-1.36534 0.5974,-0.98133 1.2374,-2.13333 0.6826,-1.152 1.3226,-2.34667 0.6827,-1.23733 1.152,-2.176 z m 26.634,19.41335 q 0.128,0.72533 0.1707,1.62133 0.085,0.85334 0.085,1.74934 0,0.85333 -0.085,1.70666 -0.043,0.85334 -0.1707,1.49334 -0.384,0.17067 -1.664,0.29867 -1.2373,0.128 -2.944,0.21333 -1.664,0.0853 -3.5413,0.128 -1.8774,0.0427 -3.5414,0.0427 -1.7067,0 -2.944,-0.0427 -1.2373,-0.0427 -1.5787,-0.17067 -0.5973,-1.36533 -0.6826,-2.90133 -0.085,-1.536 -0.085,-3.02934 v -15.87201 q 0,-0.59733 0,-1.23734 0.043,-0.68266 0.128,-1.32266 0.085,-0.68267 0.2134,-1.23734 0.128,-0.55466 0.3413,-0.85333 h 16.256 q 0.1707,0 0.2134,0.85333 0.085,0.81067 0.085,1.87734 0,1.06667 -0.085,2.048 -0.043,0.98133 -0.1707,1.32267 l -9.0027,0.17066 -0.085,3.28534 q 0.5547,-0.0427 1.3653,-0.0427 0.8107,-0.0427 1.664,-0.0427 0.8534,0 1.664,0 0.8107,0 1.408,0 0.4267,0 0.8534,0.21333 0.5546,2.85867 0,5.632 -0.2987,0.17067 -0.768,0.17067 -1.536,0.0427 -3.1147,0.128 -1.536,0.0427 -3.072,0 v 2.47467 q 0,1.408 0.64,1.664 0.64,0.256 1.9627,0.256 0.5546,0 1.4506,-0.0427 0.896,-0.0427 1.8347,-0.128 0.9387,-0.0853 1.792,-0.17066 0.896,-0.128 1.408,-0.256 z m 15.9674,-19.41335 q 0.5546,-0.21333 1.408,-0.34133 0.896,-0.128 1.8773,-0.128 1.024,-0.0427 1.9627,0.0853 0.9813,0.128 1.7493,0.384 0.085,0.59733 0,1.57867 -0.043,0.98133 0.043,1.536 0.384,-0.64 0.768,-1.32267 0.4266,-0.68267 0.9813,-1.28 0.5973,-0.59733 1.3653,-0.98133 0.8107,-0.38401 1.9627,-0.38401 1.3227,0 2.6027,0.46934 1.3226,0.46933 2.3466,1.408 1.0667,0.896 1.7067,2.26133 0.64,1.32267 0.64,3.07201 0,2.73067 -1.536,4.352 -1.4933,1.62133 -3.8827,2.176 0.9814,0.0427 2.048,0.46934 1.1094,0.384 2.048,1.10933 0.9387,0.72533 1.536,1.792 0.64,1.06667 0.64,2.47467 0,2.21867 -0.8533,3.75467 -0.8107,1.536 -2.3467,2.47467 -1.536,0.93866 -3.712,1.32267 -2.1333,0.42666 -4.7786,0.42666 -1.28,0 -2.3467,-0.0427 -1.024,0 -2.048,-0.0853 -0.9813,-0.0427 -2.0053,-0.128 -1.024,-0.0853 -2.176,-0.17066 -0.085,-0.64001 -0.128,-2.26134 -0.043,-1.664 -0.085,-3.92534 0,-2.304 0,-4.992 0,-2.73067 0,-5.41867 0.043,-2.73067 0.085,-5.248 0.043,-2.51734 0.128,-4.43734 z m 9.5146,9.89867 q 1.1094,0 1.792,-0.46933 0.6827,-0.46933 0.6827,-1.74934 0,-0.85333 -0.64,-1.152 -0.5973,-0.34133 -1.3227,-0.34133 -0.4266,0 -0.8533,0.17067 -0.384,0.17066 -0.7253,0.42666 -0.3414,0.21334 -0.5547,0.512 -0.2133,0.256 -0.2133,0.512 v 2.04801 q 0.128,0.0427 0.4266,0.0427 z m -1.28,10.45334 q 0.5547,0 1.3227,0 0.768,0 1.4507,-0.17066 0.7253,-0.17067 1.1946,-0.59734 0.512,-0.42666 0.512,-1.28 0,-0.68266 -0.384,-1.024 -0.3413,-0.384 -0.896,-0.55467 -0.512,-0.21333 -1.1093,-0.256 -0.5973,-0.0427 -1.0667,-0.0427 h -1.152 q -0.4266,0 -0.4266,0.384 v 3.37067 q 0,0.128 0.2133,0.17066 0.256,0 0.3413,0 z m 25.0126,5.76001 q -1.8346,0.59733 -3.968,0.512 -2.1333,-0.0427 -3.7973,-0.512 v -8.44801 q 0,-0.68267 -0.4693,-2.048 -0.4267,-1.36533 -1.1094,-3.072 -0.6826,-1.70667 -1.536,-3.584 -0.8106,-1.92001 -1.5786,-3.62667 -0.768,-1.74934 -1.408,-3.15734 -0.5974,-1.45067 -0.8107,-2.176 1.7493,-0.34133 3.7973,-0.384 2.048,-0.0427 4.096,0.384 l 2.9014,9.30134 3.0293,-9.30134 q 0.7253,-0.21333 1.664,-0.29867 0.9387,-0.0853 1.92,-0.0427 0.9813,0 1.92,0.0853 0.9387,0.0853 1.7067,0.256 0,0.55467 -0.4694,1.83467 -0.4693,1.28 -1.1946,2.98667 -0.6827,1.70666 -1.536,3.62667 -0.8107,1.92 -1.536,3.75466 -0.6827,1.79201 -1.152,3.32801 -0.4694,1.49333 -0.4694,2.34667 z"
         id="path8" />
      <path
         style="font-size:174.941px;font-family:'Super Corn';-inkscape-font-specification:'Super Corn'"
         d="m 1224.9729,428.92576 q -3.4988,1.04964 -7.3475,1.39953 -3.6738,0.34988 -7.3475,0.34988 -8.5721,0 -16.0946,-1.74941 v -78.19863 q -3.4988,0 -8.0473,-0.17494 -4.5484,-0.17494 -7.6974,-1.39953 -0.3499,-1.22458 -0.6997,-3.32387 -0.175,-2.0993 -0.3499,-4.37353 0,-2.27423 -0.175,-4.37352 0,-2.27424 0,-3.49882 0,-2.974 0.175,-5.77306 0.3499,-2.97399 1.0496,-5.94799 1.0497,-0.34988 1.9244,-0.52482 1.0496,-0.17495 2.0993,-0.17495 h 57.7305 q 0.5248,2.27424 0.6998,4.54847 0.1749,2.27423 0.1749,4.54847 0,1.74941 -0.1749,4.54846 0,2.62412 -0.175,5.42317 0,2.62412 -0.1749,5.24823 -0.175,2.62412 -0.3499,4.37353 -3.4988,0.8747 -7.5225,0.8747 -4.0236,0 -7.5224,0 v 75.92439 q 0,0.52483 0,1.22459 0,0.52482 -0.175,1.04965 z m 39.9434,-107.76366 q 3.3238,-1.39952 7.5224,-2.09929 4.3736,-0.69976 9.097,-0.69976 5.948,0 12.0709,0.8747 6.1229,0.69977 11.721,1.92435 1.9244,2.974 4.3736,11.02129 2.6241,7.87234 5.2482,18.54374 2.799,10.6714 5.4232,22.74233 2.6241,11.89599 4.7234,22.91727 2.2742,11.02129 3.6737,19.76833 1.5745,8.74705 1.9244,12.7707 -3.4988,0.8747 -7.5225,1.04964 -3.8487,0.34989 -7.6974,0.34989 -8.747,0 -15.2199,-1.39953 -0.6997,-1.92435 -1.7494,-4.89835 -0.8747,-2.974 -1.7494,-6.12294 -0.8747,-3.32387 -1.7494,-6.29787 -0.8747,-2.974 -1.5745,-4.89835 -1.3995,0.34988 -3.3238,0.52482 -1.9244,0.17495 -4.1986,0.17495 -4.0237,0 -8.0473,-0.17495 -3.8487,-0.34988 -6.1229,-0.69976 -0.5249,2.09929 -1.2246,5.42317 -0.6998,3.14894 -1.5745,6.47282 -0.8747,3.32388 -1.7494,6.29787 -0.6998,2.79906 -1.5745,4.19859 -6.8227,1.04964 -14.695,1.04964 -7.8724,0 -14.6951,-1.04964 -0.6997,-3.67376 0.3499,-11.89599 1.0497,-8.39717 3.149,-19.24351 2.2742,-10.84634 5.2482,-22.74233 3.1489,-12.07093 6.4728,-22.74233 3.4988,-10.84634 6.9976,-19.24351 3.4989,-8.39717 6.4729,-11.89599 z m 19.0685,18.19387 q 0,0 -0.6997,2.974 -0.5249,2.97399 -1.3996,7.52246 -0.8747,4.37352 -1.9243,9.79669 -1.0497,5.24823 -1.9244,9.97164 -0.8747,4.72341 -1.5744,8.22223 -0.6998,3.32388 -0.8747,4.02364 1.3995,-0.34988 3.3238,-0.34988 1.9244,0 4.0237,0 2.2742,0 4.3735,0 2.0993,0 3.4988,0.34988 -1.7494,-11.19622 -3.3238,-20.29316 -0.5249,-3.8487 -1.2246,-7.52246 -0.5249,-3.8487 -1.0497,-6.99764 -0.5248,-3.14894 -0.8747,-5.07329 -0.3499,-2.09929 -0.3499,-2.62411 z m 130.0382,92.71873 q -3.4988,0.8747 -7.3475,1.04964 -3.6738,0.34988 -7.6974,0.34988 -3.8487,0 -7.6974,-0.34988 -3.8487,-0.17494 -7.5225,-1.04964 -0.3499,-0.69977 -0.3499,-0.69977 -2.0993,-3.49882 -4.0236,-8.39717 -1.9244,-4.89834 -4.0237,-9.44681 -1.9243,-4.72341 -4.1986,-8.22223 -2.0992,-3.49882 -4.5484,-4.19858 v 28.51538 q 0,0.52482 0,1.04965 0,0.69976 -0.175,1.39953 -4.5484,0.8747 -8.922,1.22458 -4.3735,0.52483 -8.747,0.52483 -7.1726,0 -13.1206,-1.74941 -0.1749,-0.87471 -0.1749,-2.62412 V 320.98716 l 33.9385,0.17494 q 9.2719,0 17.1443,1.92436 8.0472,1.74941 13.8203,5.77305 5.773,4.02364 9.0969,10.84634 3.3239,6.8227 3.3239,16.79434 0,11.89598 -5.0733,19.76833 -4.8983,7.87234 -12.2459,13.82034 3.4989,4.37352 6.6478,9.79669 3.1489,5.42317 5.5981,11.02129 2.6241,5.59811 4.1986,11.19622 1.7494,5.42317 2.0993,9.97164 z m -47.9338,-62.10406 q 6.8227,0 11.3711,-2.97399 4.7234,-2.974 4.7234,-8.922 0,-2.62411 -1.7494,-4.37352 -1.5745,-1.74941 -4.0236,-2.62412 -2.4492,-1.04964 -5.2483,-1.39952 -2.799,-0.34988 -5.0732,-0.17494 z m 78.2554,-48.80854 q 3.3238,-1.39952 7.5224,-2.09929 4.3736,-0.69976 9.097,-0.69976 5.948,0 12.0709,0.8747 6.1229,0.69977 11.721,1.92435 1.9244,2.974 4.3736,11.02129 2.6241,7.87234 5.2482,18.54374 2.799,10.6714 5.4232,22.74233 2.6241,11.89599 4.7234,22.91727 2.2742,11.02129 3.6737,19.76833 1.5745,8.74705 1.9244,12.7707 -3.4988,0.8747 -7.5225,1.04964 -3.8487,0.34989 -7.6974,0.34989 -8.747,0 -15.2199,-1.39953 -0.6997,-1.92435 -1.7494,-4.89835 -0.8747,-2.974 -1.7494,-6.12294 -0.8747,-3.32387 -1.7494,-6.29787 -0.8747,-2.974 -1.5745,-4.89835 -1.3995,0.34988 -3.3238,0.52482 -1.9244,0.17495 -4.1986,0.17495 -4.0237,0 -8.0473,-0.17495 -3.8487,-0.34988 -6.1229,-0.69976 -0.5249,2.09929 -1.2246,5.42317 -0.6998,3.14894 -1.5745,6.47282 -0.8747,3.32388 -1.7494,6.29787 -0.6998,2.79906 -1.5745,4.19859 -6.8227,1.04964 -14.695,1.04964 -7.8724,0 -14.6951,-1.04964 -0.6997,-3.67376 0.3499,-11.89599 1.0497,-8.39717 3.149,-19.24351 2.2742,-10.84634 5.2482,-22.74233 3.1489,-12.07093 6.4728,-22.74233 3.4988,-10.84634 6.9977,-19.24351 3.4988,-8.39717 6.4728,-11.89599 z m 19.0685,18.19387 q 0,0 -0.6997,2.974 -0.5249,2.97399 -1.3996,7.52246 -0.8747,4.37352 -1.9243,9.79669 -1.0497,5.24823 -1.9244,9.97164 -0.8747,4.72341 -1.5744,8.22223 -0.6998,3.32388 -0.8747,4.02364 1.3995,-0.34988 3.3238,-0.34988 1.9244,0 4.0237,0 2.2742,0 4.3735,0 2.0993,0 3.4988,0.34988 -1.7494,-11.19622 -3.3238,-20.29316 -0.5249,-3.8487 -1.2246,-7.52246 -0.5249,-3.8487 -1.0497,-6.99764 -0.5248,-3.14894 -0.8747,-5.07329 -0.3499,-2.09929 -0.3499,-2.62411 z m 142.1091,89.56979 q -2.4491,0.69976 -6.4728,1.04964 -4.0236,0.52483 -8.5721,0.52483 -4.3735,0.17494 -8.747,-0.17494 -4.3736,-0.34989 -7.5225,-1.39953 -4.8984,-6.47282 -8.922,-13.82034 -3.8487,-7.34752 -7.5225,-15.04493 -3.4988,-7.6974 -6.8227,-15.3948 -3.3238,-7.69741 -7.3475,-14.69505 0.175,3.8487 0.3499,7.87235 0.3499,3.8487 0.3499,7.6974 0,4.02364 0,9.97164 0.1749,5.94799 0,12.07093 0,6.12293 -0.3499,11.89598 -0.3499,5.77306 -1.2246,9.44682 -1.7494,0.52482 -5.2482,0.8747 -3.4988,0.52483 -7.5225,0.69977 -3.8487,0.17494 -7.8723,-0.17494 -3.8487,-0.34989 -6.6478,-1.39953 -0.5248,-2.44918 -0.6997,-5.07329 -0.175,-2.62412 -0.175,-5.07329 v -91.14426 q 0,-1.57447 0.175,-3.14894 0.3498,-1.74941 1.0496,-3.14893 2.6241,-0.69977 6.4728,-0.87471 4.0237,-0.34988 8.2222,-0.34988 4.1986,0 8.2223,0.34988 4.1986,0.34988 7.3475,0.87471 1.2246,1.57446 3.4988,6.29787 2.4492,4.54847 5.4232,10.49646 3.1489,5.948 6.4728,12.59575 3.3239,6.47282 6.1229,11.89599 2.974,5.42317 5.0733,9.09693 2.0993,3.49882 2.6241,3.67376 v -43.91019 q 0,-2.44917 0.175,-5.07329 0.1749,-2.62411 1.0496,-5.07328 2.6241,-0.87471 6.6478,-1.22459 4.0236,-0.34988 8.2222,-0.17494 4.1986,0 8.0473,0.34988 3.8487,0.34988 6.1229,1.04965 0.6998,2.62411 0.6998,6.12293 v 89.74473 q 0,2.974 -0.1749,5.94799 0,2.79906 -0.5249,5.77306 z m 57.7874,-21.86763 q 0.5248,1.92435 0.6998,4.54847 0.3498,2.62411 0.3498,5.42317 0,2.79906 -0.3498,5.42317 -0.175,2.44917 -0.6998,4.37353 -1.5745,0.69976 -4.3735,1.22458 -2.6241,0.34988 -5.948,0.69977 -3.3239,0.17494 -6.8227,0.17494 -3.3239,0 -6.2979,0 h -5.5981 q -7.3475,0 -12.7707,-0.34988 -5.4232,-0.52483 -7.5225,-2.79906 -0.3498,-1.57447 -0.5248,-3.8487 0,-2.27424 0,-4.72341 0,-2.44917 0.175,-4.89835 0.1749,-2.44917 0.3498,-4.19858 1.2246,-1.04965 4.0237,-1.57447 2.799,-0.52482 5.773,-0.52482 l -0.3499,-64.02841 h -2.6241 q -0.5248,0 -1.5744,0 -0.8747,0 -1.9244,0 -1.0496,-0.17494 -2.0993,-0.17494 -0.8747,-0.17494 -1.2246,-0.34988 -0.8747,-4.02364 -0.8747,-9.27187 0,-5.42317 0.8747,-9.7967 2.974,-1.22459 9.097,-1.39953 6.2978,-0.34988 12.5957,-0.34988 3.4988,0 7.5225,0.17494 4.0236,0 7.6974,0.17494 3.8487,0.17494 6.9976,0.69977 3.149,0.34988 4.8984,1.04964 1.5744,9.44682 0,17.84399 -1.9244,0 -4.0237,0.34988 -2.0993,0.17494 -4.0236,-0.17494 v 65.77781 q 0.5248,0 1.7494,0 1.2246,0 2.6241,0.17494 1.3995,0 2.6241,0.17494 1.2246,0 1.5745,0.17494 z m 7.4044,24.49174 q -0.6998,-2.62411 -1.0496,-6.12293 -0.175,-3.49882 -0.175,-7.17258 0,-3.84871 0.175,-7.52247 0.3498,-3.67376 1.0496,-6.47281 0.3499,0 3.4988,0.17494 3.149,0 6.8227,0 3.8487,0 6.9977,0 3.1489,0 3.4988,0 1.3995,0 3.1489,-0.17494 1.7494,-0.17494 3.3239,-0.69977 1.5745,-0.52482 2.6241,-1.57447 1.2246,-1.04964 1.2246,-2.97399 0,-3.32388 -2.2742,-6.64776 -2.2743,-3.32388 -5.7731,-6.8227 -3.3239,-3.67376 -7.3475,-7.6974 -3.8487,-4.02365 -7.3475,-8.57211 -3.3239,-4.54847 -5.5981,-9.7967 -2.2743,-5.24823 -2.2743,-11.37116 0,-7.17258 2.4492,-12.42081 2.6241,-5.42317 6.9977,-8.92199 4.3735,-3.49882 10.1465,-5.24823 5.948,-1.74941 12.5958,-1.74941 0.3499,0 4.7234,0 4.5485,0 9.7967,0.17494 5.4232,0 9.7967,0.17494 4.5484,0 4.8983,0 0.6998,2.974 0.8747,6.47282 0.3499,3.49882 0.3499,7.17258 0,3.49882 -0.3499,6.99764 -0.3499,3.32388 -0.8747,6.12293 -0.5248,0 -4.1986,0 -3.6737,-0.17494 -7.8723,-0.17494 -4.1986,-0.17494 -7.6974,-0.17494 -3.4988,0 -3.6738,0 -0.6997,0 -1.7494,0.17494 -1.0496,0 -2.0993,0.34988 -0.8747,0.34988 -1.5744,1.22459 -0.6998,0.8747 -0.6998,2.44917 0,2.79906 2.4492,6.12294 2.4491,3.14894 6.1229,6.8227 3.6738,3.49882 7.8724,7.6974 4.1985,4.02364 7.8723,8.74705 3.6738,4.72341 6.1229,10.14658 2.4492,5.24823 2.4492,11.19622 0,7.17258 -2.7991,12.94563 -2.6241,5.59812 -7.1725,9.62176 -4.5485,3.8487 -10.6714,5.77305 -6.123,2.09929 -12.9457,2.09929 -0.3498,0 -2.799,0 -2.4492,0 -5.7731,0 -3.3239,0 -7.3475,-0.17494 -3.8487,0 -7.1726,0 -3.3239,0 -5.773,-0.17494 -2.4492,0 -2.7991,0 z"
         id="path9" />
      <path
         style="font-size:174.941px;font-family:'Super Corn';-inkscape-font-specification:'Super Corn';letter-spacing:-0.157447px;word-spacing:-2.97837px"
         d="m 1800.5814,431.54987 q -0.6998,-2.62411 -1.0497,-6.12293 -0.1749,-3.49882 -0.1749,-7.17258 0,-3.84871 0.1749,-7.52247 0.3499,-3.67376 1.0497,-6.47281 0.3498,0 3.4988,0.17494 3.1489,0 6.8227,0 3.8487,0 6.9976,0 3.1489,0 3.4988,0 1.3996,0 3.149,-0.17494 1.7494,-0.17494 3.3238,-0.69977 1.5745,-0.52482 2.6242,-1.57447 1.2246,-1.04964 1.2246,-2.97399 0,-3.32388 -2.2743,-6.64776 -2.2742,-3.32388 -5.773,-6.8227 -3.3239,-3.67376 -7.3476,-7.6974 -3.8487,-4.02365 -7.3475,-8.57211 -3.3239,-4.54847 -5.5981,-9.7967 -2.2742,-5.24823 -2.2742,-11.37116 0,-7.17258 2.4492,-12.42081 2.6241,-5.42317 6.9976,-8.92199 4.3735,-3.49882 10.1466,-5.24823 5.948,-1.74941 12.5957,-1.74941 0.3499,0 4.7234,0 4.5485,0 9.7967,0.17494 5.4232,0 9.7967,0.17494 4.5485,0 4.8984,0 0.6997,2.974 0.8747,6.47282 0.3499,3.49882 0.3499,7.17258 0,3.49882 -0.3499,6.99764 -0.3499,3.32388 -0.8747,6.12293 -0.5249,0 -4.1986,0 -3.6738,-0.17494 -7.8724,-0.17494 -4.1985,-0.17494 -7.6974,-0.17494 -3.4988,0 -3.6737,0 -0.6998,0 -1.7494,0.17494 -1.0497,0 -2.0993,0.34988 -0.8747,0.34988 -1.5745,1.22459 -0.6998,0.8747 -0.6998,2.44917 0,2.79906 2.4492,6.12294 2.4492,3.14894 6.1229,6.8227 3.6738,3.49882 7.8724,7.6974 4.1986,4.02364 7.8723,8.74705 3.6738,4.72341 6.123,10.14658 2.4491,5.24823 2.4491,11.19622 0,7.17258 -2.799,12.94563 -2.6241,5.59812 -7.1726,9.62176 -4.5485,3.8487 -10.6714,5.77305 -6.1229,2.09929 -12.9456,2.09929 -0.3499,0 -2.7991,0 -2.4492,0 -5.773,0 -3.3239,0 -7.3476,-0.17494 -3.8487,0 -7.1725,0 -3.3239,0 -5.7731,-0.17494 -2.4492,0 -2.799,0 z m 114.4288,-2.62411 q -3.4988,1.04964 -7.3475,1.39953 -3.6738,0.34988 -7.3475,0.34988 -8.5721,0 -16.0946,-1.74941 v -78.19863 q -3.4988,0 -8.0473,-0.17494 -4.5485,-0.17494 -7.6974,-1.39953 -0.3499,-1.22458 -0.6998,-3.32387 -0.1749,-2.0993 -0.3498,-4.37353 0,-2.27423 -0.175,-4.37352 0,-2.27424 0,-3.49882 0,-2.974 0.175,-5.77306 0.3498,-2.97399 1.0496,-5.94799 1.0497,-0.34988 1.9244,-0.52482 1.0496,-0.17495 2.0993,-0.17495 h 57.7305 q 0.5248,2.27424 0.6997,4.54847 0.175,2.27423 0.175,4.54847 0,1.74941 -0.175,4.54846 0,2.62412 -0.1749,5.42317 0,2.62412 -0.1749,5.24823 -0.175,2.62412 -0.3499,4.37353 -3.4988,0.8747 -7.5225,0.8747 -4.0236,0 -7.5224,0 v 75.92439 q 0,0.52483 0,1.22459 0,0.52482 -0.175,1.04965 z m 80.6654,-107.23883 q 2.974,-1.04965 7.1726,-1.39953 4.1986,-0.52482 8.5721,-0.52482 8.2222,0 13.4704,1.92435 0.3499,1.74941 0.5249,3.49882 0.1749,1.74941 0.1749,3.67376 v 55.98112 q 0,22.74233 -10.8463,33.76361 -10.6714,11.02128 -34.6384,11.02128 -21.5177,0 -33.4137,-9.97164 -11.721,-10.14657 -11.721,-30.78961 v -59.65488 q 0,-1.74941 0.1749,-3.67376 0.1749,-1.92435 0.6998,-3.8487 2.6241,-1.04965 6.6477,-1.57447 4.0237,-0.52482 8.3972,-0.52482 4.3735,0 8.3972,0.52482 4.1985,0.52482 6.9976,1.57447 0.3499,1.74941 0.3499,3.8487 0,1.92435 0,4.02364 v 58.08041 q 0,3.32388 1.2246,5.77306 1.3995,2.44917 3.3239,4.19858 2.0992,1.74941 4.5484,2.62411 2.6241,0.87471 5.0733,0.87471 3.6738,0 6.2979,-1.92435 2.6241,-1.92435 4.1986,-5.07329 1.7494,-3.14894 2.6241,-6.99764 0.8747,-3.8487 0.8747,-7.6974 v -50.38301 q 0,-2.974 0.8747,-7.34752 z m 39.2042,107.23883 q -1.3995,-4.19859 -1.0496,-9.09693 0.3499,-5.07329 0,-9.7967 l 0.1749,-68.05205 q 0,-5.24823 0,-10.84634 0,-5.59811 0.8747,-10.32152 3.149,-0.8747 7.3475,-1.39952 4.1986,-0.52483 8.922,-0.69977 4.7234,-0.34988 9.6218,-0.34988 4.8983,-0.17494 9.6217,-0.17494 11.896,0 21.6927,4.19858 9.7967,4.19859 16.7944,11.54611 7.1725,7.34752 11.0212,17.31916 3.8488,9.79669 3.8488,20.99292 0,11.72104 -3.8488,22.2175 -3.6737,10.49646 -10.6714,18.36881 -6.8227,7.87234 -16.7943,12.59575 -9.9716,4.54846 -22.5674,4.54846 -8.747,0 -17.4941,0 -8.5721,0.17494 -17.4941,-1.04964 z m 31.4894,-25.01656 q 6.8227,0 11.3712,-2.79906 4.7234,-2.79906 7.5224,-7.34752 2.974,-4.54847 4.1986,-10.32152 1.2246,-5.77305 1.2246,-11.72105 0,-4.54846 -1.0496,-9.09693 -0.8747,-4.54847 -3.149,-8.22223 -2.0993,-3.67376 -5.773,-5.94799 -3.4989,-2.27423 -8.7471,-2.27423 h -2.799 q -1.0497,0 -2.2743,0.17494 -1.2246,0 -1.2246,1.39953 v 55.28135 q 0.3499,0.87471 0.6998,0.87471 z m 109.1808,3.14893 q 0.5248,1.92435 0.6997,4.54847 0.3499,2.62411 0.3499,5.42317 0,2.79906 -0.3499,5.42317 -0.1749,2.44917 -0.6997,4.37353 -1.5745,0.69976 -4.3735,1.22458 -2.6242,0.34988 -5.948,0.69977 -3.3239,0.17494 -6.8227,0.17494 -3.3239,0 -6.2979,0 h -5.5981 q -7.3475,0 -12.7707,-0.34988 -5.4232,-0.52483 -7.5225,-2.79906 -0.3499,-1.57447 -0.5248,-3.8487 0,-2.27424 0,-4.72341 0,-2.44917 0.1749,-4.89835 0.175,-2.44917 0.3499,-4.19858 1.2246,-1.04965 4.0237,-1.57447 2.799,-0.52482 5.773,-0.52482 l -0.3499,-64.02841 h -2.6241 q -0.5248,0 -1.5744,0 -0.8748,0 -1.9244,0 -1.0496,-0.17494 -2.0993,-0.17494 -0.8747,-0.17494 -1.2246,-0.34988 -0.8747,-4.02364 -0.8747,-9.27187 0,-5.42317 0.8747,-9.7967 2.974,-1.22459 9.097,-1.39953 6.2978,-0.34988 12.5957,-0.34988 3.4988,0 7.5225,0.17494 4.0236,0 7.6974,0.17494 3.8487,0.17494 6.9976,0.69977 3.1489,0.34988 4.8984,1.04964 1.5744,9.44682 0,17.84399 -1.9244,0 -4.0237,0.34988 -2.0993,0.17494 -4.0236,-0.17494 v 65.77781 q 0.5248,0 1.7494,0 1.2246,0 2.6241,0.17494 1.3995,0 2.6241,0.17494 1.2246,0 1.5745,0.17494 z m 53.3745,26.24115 q -12.7707,0 -22.0426,-4.19858 -9.0969,-4.02364 -15.0449,-11.37117 -5.773,-7.52246 -8.5721,-17.84398 -2.6241,-10.49646 -2.6241,-22.91727 0,-13.6454 2.4492,-24.66668 2.4491,-11.02128 8.0473,-18.71868 5.773,-7.87235 15.0449,-12.07093 9.2719,-4.37353 22.9173,-4.37353 13.2955,0 22.3924,4.72341 9.0969,4.72341 14.695,12.94563 5.5982,8.04729 8.0473,19.24351 2.4492,11.02128 2.4492,23.61704 0,11.02128 -2.974,21.16786 -2.974,9.97163 -9.0969,17.66904 -5.948,7.6974 -14.87,12.24587 -8.922,4.54846 -20.818,4.54846 z m 0,-29.21514 q 5.4232,0 8.5721,-2.79906 3.3239,-2.79906 5.0733,-6.99764 1.7494,-4.19858 2.2742,-8.92199 0.5249,-4.89835 0.5249,-8.92199 0,-4.19858 -0.3499,-9.09693 -0.3499,-5.07329 -2.0993,-9.27188 -1.5745,-4.37352 -4.8984,-7.34752 -3.1489,-2.97399 -8.9219,-2.97399 -5.2483,0 -8.7471,3.14893 -3.3239,2.974 -5.2482,7.52247 -1.9244,4.54846 -2.7991,9.62175 -0.6997,4.89835 -0.6997,8.92199 0,4.19859 0.6997,8.92199 0.6998,4.72341 2.4492,8.74705 1.9243,4.02365 5.2482,6.8227 3.4988,2.62412 8.922,2.62412 z m 48.8262,27.46573 q -0.6998,-2.62411 -1.0497,-6.12293 -0.1749,-3.49882 -0.1749,-7.17258 0,-3.84871 0.1749,-7.52247 0.3499,-3.67376 1.0497,-6.47281 0.3498,0 3.4988,0.17494 3.1489,0 6.8227,0 3.8487,0 6.9976,0 3.149,0 3.4988,0 1.3996,0 3.149,-0.17494 1.7494,-0.17494 3.3239,-0.69977 1.5744,-0.52482 2.6241,-1.57447 1.2246,-1.04964 1.2246,-2.97399 0,-3.32388 -2.2743,-6.64776 -2.2742,-3.32388 -5.773,-6.8227 -3.3239,-3.67376 -7.3475,-7.6974 -3.8487,-4.02365 -7.3476,-8.57211 -3.3238,-4.54847 -5.5981,-9.7967 -2.2742,-5.24823 -2.2742,-11.37116 0,-7.17258 2.4492,-12.42081 2.6241,-5.42317 6.9976,-8.92199 4.3735,-3.49882 10.1466,-5.24823 5.948,-1.74941 12.5957,-1.74941 0.3499,0 4.7234,0 4.5485,0 9.7967,0.17494 5.4232,0 9.7967,0.17494 4.5485,0 4.8984,0 0.6997,2.974 0.8747,6.47282 0.3499,3.49882 0.3499,7.17258 0,3.49882 -0.3499,6.99764 -0.3499,3.32388 -0.8747,6.12293 -0.5248,0 -4.1986,0 -3.6738,-0.17494 -7.8724,-0.17494 -4.1985,-0.17494 -7.6974,-0.17494 -3.4988,0 -3.6737,0 -0.6998,0 -1.7494,0.17494 -1.0497,0 -2.0993,0.34988 -0.8747,0.34988 -1.5745,1.22459 -0.6998,0.8747 -0.6998,2.44917 0,2.79906 2.4492,6.12294 2.4492,3.14894 6.123,6.8227 3.6737,3.49882 7.8723,7.6974 4.1986,4.02364 7.8723,8.74705 3.6738,4.72341 6.123,10.14658 2.4492,5.24823 2.4492,11.19622 0,7.17258 -2.7991,12.94563 -2.6241,5.59812 -7.1726,9.62176 -4.5484,3.8487 -10.6714,5.77305 -6.1229,2.09929 -12.9456,2.09929 -0.3499,0 -2.7991,0 -2.4491,0 -5.773,0 -3.3239,0 -7.3475,-0.17494 -3.8487,0 -7.1726,0 -3.3239,0 -5.7731,-0.17494 -2.4492,0 -2.799,0 z"
         id="path10" />
    </g>
  </g>
</svg>
